HIERARCHY
ROOT Hips
{
	OFFSET 0.00000 0.00000 0.00000
	CHANNELS 6 Xposition Yposition Zposition Zrotation Yrotation Xrotation 
	JOINT LHipJoint
	{
		OFFSET 0 0 0
		CHANNELS 3 Zrotation Yrotation Xrotation
		JOINT LeftUpLeg
		{
			OFFSET 1.58895 -1.83665 0.71753
			CHANNELS 3 Zrotation Yrotation Xrotation
			JOINT LeftLeg
			{
				OFFSET 2.50528 -6.88321 0.00000
				CHANNELS 3 Zrotation Yrotation Xrotation
				JOINT LeftFoot
				{
					OFFSET 2.63244 -7.23257 0.00000
					CHANNELS 3 Zrotation Yrotation Xrotation
					JOINT LeftToeBase
					{
						OFFSET 0.23691 -0.65090 1.72750
						CHANNELS 3 Zrotation Yrotation Xrotation
						End Site
						{
							OFFSET 0.00000 -0.00000 0.92561
						}
					}
				}
			}
		}
	}
	JOINT RHipJoint
	{
		OFFSET 0 0 0
		CHANNELS 3 Zrotation Yrotation Xrotation
		JOINT RightUpLeg
		{
			OFFSET -1.51435 -1.83665 0.71753
			CHANNELS 3 Zrotation Yrotation Xrotation
			JOINT RightLeg
			{
				OFFSET -2.54551 -6.99375 0.00000
				CHANNELS 3 Zrotation Yrotation Xrotation
				JOINT RightFoot
				{
					OFFSET -2.66027 -7.30903 0.00000
					CHANNELS 3 Zrotation Yrotation Xrotation
					JOINT RightToeBase
					{
						OFFSET -0.22981 -0.63138 2.03959
						CHANNELS 3 Zrotation Yrotation Xrotation
						End Site
						{
							OFFSET -0.00000 -0.00000 1.07060
						}
					}
				}
			}
		}
	}
	JOINT LowerBack
	{
		OFFSET 0 0 0
		CHANNELS 3 Zrotation Yrotation Xrotation
		JOINT Spine
		{
			OFFSET -0.02651 1.86275 -0.11152
			CHANNELS 3 Zrotation Yrotation Xrotation
			JOINT Spine1
			{
				OFFSET 0.01019 1.86224 0.04087
				CHANNELS 3 Zrotation Yrotation Xrotation
				JOINT Neck
				{
					OFFSET 0 0 0
					CHANNELS 3 Zrotation Yrotation Xrotation
					JOINT Neck1
					{
						OFFSET -0.01926 1.80512 0.08867
						CHANNELS 3 Zrotation Yrotation Xrotation
						JOINT Head
						{
							OFFSET 0.05516 1.76451 -0.38475
							CHANNELS 3 Zrotation Yrotation Xrotation
							End Site
							{
								OFFSET 0.01592 1.82587 -0.14001
							}
						}
					}
				}
				JOINT LeftShoulder
				{
					OFFSET 0 0 0
					CHANNELS 3 Zrotation Yrotation Xrotation
					JOINT LeftArm
					{
						OFFSET 3.47116 1.51376 0.14491
						CHANNELS 3 Zrotation Yrotation Xrotation
						JOINT LeftForeArm
						{
							OFFSET 4.78095 -0.00000 0.00000
							CHANNELS 3 Zrotation Yrotation Xrotation
							JOINT LeftHand
							{
								OFFSET 3.58615 -0.00000 -0.00000
								CHANNELS 3 Zrotation Yrotation Xrotation
								JOINT LeftFingerBase
								{
									OFFSET 0 0 0
									CHANNELS 3 Zrotation Yrotation Xrotation
									JOINT LeftHandIndex1
									{
										OFFSET 0.65981 -0.00000 0.00000
										CHANNELS 3 Zrotation Yrotation Xrotation
										End Site
										{
											OFFSET 0.53196 -0.00000 0.00000
										}
									}
								}
								JOINT LThumb
								{
									OFFSET 0 0 0
									CHANNELS 3 Zrotation Yrotation Xrotation
									End Site
									{
										OFFSET 0.54008 -0.00000 0.54008
									}
								}
							}
						}
					}
				}
				JOINT RightShoulder
				{
					OFFSET 0 0 0
					CHANNELS 3 Zrotation Yrotation Xrotation
					JOINT RightArm
					{
						OFFSET -3.31725 1.61216 0.35156
						CHANNELS 3 Zrotation Yrotation Xrotation
						JOINT RightForeArm
						{
							OFFSET -4.48913 -0.00000 0.00000
							CHANNELS 3 Zrotation Yrotation Xrotation
							JOINT RightHand
							{
								OFFSET -3.70510 -0.00000 0.00000
								CHANNELS 3 Zrotation Yrotation Xrotation
								JOINT RightFingerBase
								{
									OFFSET 0 0 0
									CHANNELS 3 Zrotation Yrotation Xrotation
									JOINT RightHandIndex1
									{
										OFFSET -0.44914 -0.00000 0.00000
										CHANNELS 3 Zrotation Yrotation Xrotation
										End Site
										{
											OFFSET -0.36211 -0.00000 0.00000
										}
									}
								}
								JOINT RThumb
								{
									OFFSET 0 0 0
									CHANNELS 3 Zrotation Yrotation Xrotation
									End Site
									{
										OFFSET -0.36763 -0.00000 0.36763
									}
								}
							}
						}
					}
				}
			}
		}
	}
}
MOTION
Frames: 8
Frame Time: .0083333
-0.4544 18.7401 5.1449 -1.0971 -0.8299 1.6365 0.0000 0.0000 0.0000 -13.8719 -7.6671 -4.5355 1.4190 7.5333 21.3053 1.2673 6.7767 -24.7035 8.2695 -16.3139 -53.5277 0.0000 0.0000 0.0000 0.0000 0.0000 0.0000 0.0000 0.0000 0.0000 -0.0000 -0.0000 0.0000 -0.0000 -0.0000 0.0000 -1.5878 0.7462 3.7365 0.7732 0.9443 1.1204 1.6404 0.4725 -0.9833 -1.8048 -2.6076 -11.9735 2.3313 -4.2321 35.0008 0.6133 -1.7643 14.0095 -0.0000 0.0000 0.0000 -65.1555 -36.8614 65.2113 60.4857 -56.4380 -34.7456 -0.0000 -0.0000 4.6292 -20.9559 -23.7181 8.7575 -7.1250 0.0000 -0.0000 -29.4843 6.9168 30.1604 -0.0000 0.0000 0.0000 82.7776 -1.2964 61.2303 -97.8380 59.7666 -66.7825 0.0000 0.0000 25.9284 -23.9416 -58.1197 20.6580 7.1250 -0.0000 -0.0000 94.3455 -80.3349 -84.6315
-0.4581 18.7388 5.1456 -1.1142 -0.8313 1.5493 0.0000 0.0000 0.0000 -13.8452 -7.6125 -4.4569 1.4197 7.5352 21.3110 1.2665 6.7468 -24.6774 8.2736 -16.3169 -53.5423 0.0000 0.0000 0.0000 0.0000 0.0000 0.0000 0.0000 0.0000 0.0000 -0.0000 -0.0000 0.0000 -0.0000 -0.0000 0.0000 -1.6730 0.7205 3.9206 0.8288 0.9048 1.1057 1.7449 0.4540 -1.1018 -1.9578 -2.6295 -11.7949 2.4960 -4.2800 34.8742 0.7012 -1.7871 13.9228 0.0000 0.0000 0.0000 -64.5425 -36.5233 65.1566 62.6516 -56.9761 -36.5560 -0.0000 -0.0000 4.5419 -20.9341 -23.1515 8.5533 -7.1250 0.0000 -0.0000 -29.5576 7.4377 29.9140 0.0000 0.0000 0.0000 82.4225 -1.5612 61.1389 -98.3455 59.7352 -67.2210 0.0000 0.0000 26.2160 -29.9845 -56.3240 25.6486 7.1250 -0.0000 -0.0000 91.5573 -82.8636 -84.3798
-0.4614 18.7378 5.1466 -1.1429 -0.8345 1.4625 0.0000 0.0000 0.0000 -13.8040 -7.5314 -4.3812 1.4202 7.5365 21.3150 1.2703 6.6767 -24.6611 8.2617 -16.3084 -53.5001 0.0000 0.0000 0.0000 0.0000 0.0000 0.0000 0.0000 0.0000 0.0000 -0.0000 -0.0000 0.0000 -0.0000 -0.0000 0.0000 -1.7763 0.6970 4.1153 0.9045 0.8673 1.0617 1.8801 0.4374 -1.2569 -2.0735 -2.6445 -11.6298 2.5864 -4.3041 34.8118 0.7562 -1.8037 13.8644 0.0000 -0.0000 0.0000 -63.9603 -36.0362 65.0908 64.9733 -57.4958 -38.5084 -0.0000 -0.0000 4.4849 -21.2823 -22.5973 8.5127 -7.1250 0.0000 -0.0000 -29.8142 7.9095 29.9510 0.0000 -0.0000 0.0000 82.0336 -1.7776 60.9739 -98.4128 59.7309 -67.2791 0.0000 0.0000 26.6538 -32.0909 -55.4907 27.3269 7.1250 -0.0000 -0.0000 89.2036 -83.8335 -82.9970
-0.4636 18.7367 5.1490 -1.2152 -0.8582 1.3905 0.0000 0.0000 0.0000 -13.7193 -7.4397 -4.3031 1.4195 7.5347 21.3095 1.2749 6.6225 -24.6618 8.2596 -16.3069 -53.4924 0.0000 0.0000 0.0000 0.0000 0.0000 0.0000 0.0000 0.0000 0.0000 -0.0000 -0.0000 0.0000 -0.0000 -0.0000 0.0000 -1.8035 0.6966 4.2358 0.9724 0.8647 1.0260 1.9637 0.4376 -1.3623 -2.1006 -2.6716 -11.4698 2.6016 -4.3435 34.7598 0.7631 -1.8251 13.8078 0.0000 0.0000 0.0000 -63.3138 -35.5946 65.1203 67.6618 -58.0279 -40.7827 -0.0000 -0.0000 4.3514 -21.9040 -21.9069 8.5316 -7.1250 0.0000 -0.0000 -30.2296 8.4742 30.1379 0.0000 0.0000 0.0000 81.7004 -1.8653 60.6493 -97.9302 59.7610 -66.8623 0.0000 0.0000 27.7335 -30.8320 -55.8304 26.2821 7.1250 -0.0000 -0.0000 89.3520 -83.3002 -82.6019
-0.4658 18.7354 5.1508 -1.2414 -0.8840 1.3230 0.0000 0.0000 0.0000 -13.6919 -7.3821 -4.2179 1.4185 7.5322 21.3020 1.2751 6.6216 -24.6632 8.2702 -16.3144 -53.5302 0.0000 0.0000 0.0000 0.0000 0.0000 0.0000 0.0000 0.0000 0.0000 -0.0000 -0.0000 0.0000 -0.0000 -0.0000 0.0000 -1.8468 0.7166 4.3128 1.0078 0.8888 1.0096 2.0222 0.4507 -1.4244 -2.0580 -2.7120 -11.3446 2.5883 -4.4119 34.7503 0.7418 -1.8526 13.7764 -0.0000 -0.0000 0.0000 -62.5240 -35.4207 65.3643 70.3981 -58.4972 -43.1099 -0.0000 -0.0000 4.0925 -22.3409 -21.1370 8.4295 -7.1250 0.0000 -0.0000 -30.5702 9.1274 30.1449 -0.0000 -0.0000 0.0000 81.4650 -1.8067 60.1784 -96.9466 59.8169 -66.0122 0.0000 0.0000 29.4618 -26.7608 -56.7595 22.8684 7.1250 -0.0000 -0.0000 89.4944 -81.6504 -81.0497
-0.4661 18.7349 5.1537 -1.1972 -0.9408 1.3082 0.0000 0.0000 0.0000 -13.7509 -7.3763 -4.1689 1.4169 7.5282 21.2898 1.2780 6.6511 -24.7051 8.2623 -16.3088 -53.5021 0.0000 0.0000 0.0000 0.0000 0.0000 0.0000 0.0000 0.0000 0.0000 -0.0000 -0.0000 0.0000 -0.0000 -0.0000 0.0000 -1.9200 0.7588 4.2725 1.0083 0.9425 1.0057 2.0612 0.4776 -1.4097 -2.0552 -2.7609 -11.3050 2.6273 -4.5034 34.8387 0.7440 -1.8864 13.8115 0.0000 0.0000 0.0000 -62.0342 -35.3525 65.6383 71.9503 -58.7325 -44.4351 -0.0000 -0.0000 4.4492 -22.6206 -21.2359 8.5826 -7.1250 0.0000 -0.0000 -30.6909 9.0043 30.4049 0.0000 0.0000 0.0000 81.2590 -1.6169 59.6827 -95.8116 59.8720 -65.0308 0.0000 0.0000 31.1785 -25.5150 -55.9998 21.5885 7.1250 -0.0000 -0.0000 83.0660 -81.3502 -74.3028
-0.4640 18.7352 5.1590 -1.1519 -1.0341 1.3485 0.0000 0.0000 0.0000 -13.8235 -7.4106 -4.1497 1.4140 7.5206 21.2671 1.2871 6.7053 -24.8108 8.2336 -16.2884 -53.3999 0.0000 0.0000 0.0000 0.0000 0.0000 0.0000 0.0000 0.0000 0.0000 -0.0000 -0.0000 0.0000 -0.0000 -0.0000 0.0000 -1.9576 0.8093 4.1368 1.0096 1.0105 0.9991 2.0816 0.5110 -1.3447 -2.1215 -2.8052 -11.3415 2.7026 -4.5842 34.9826 0.7738 -1.9180 13.8916 0.0000 0.0000 0.0000 -61.9442 -35.3068 65.9010 72.3415 -58.7884 -44.7695 -0.0000 -0.0000 5.4572 -22.7892 -22.1060 8.9845 -7.1250 0.0000 -0.0000 -30.6298 8.1900 30.9101 0.0000 0.0000 0.0000 81.0233 -1.3094 59.2661 -94.7709 59.9138 -64.1305 0.0000 0.0000 32.5167 -27.1150 -54.1609 22.5437 7.1250 -0.0000 -0.0000 71.5996 -82.0441 -63.8199
-0.4623 18.7347 5.1623 -1.1181 -1.0929 1.3496 0.0000 0.0000 0.0000 -13.8749 -7.3860 -4.1228 1.4111 7.5132 21.2451 1.2895 6.7326 -24.8472 8.2182 -16.2774 -53.3449 0.0000 0.0000 0.0000 0.0000 0.0000 0.0000 0.0000 0.0000 0.0000 -0.0000 -0.0000 0.0000 -0.0000 -0.0000 0.0000 -1.9958 0.8398 4.0839 1.0272 1.0506 0.9913 2.1197 0.5311 -1.3262 -2.1331 -2.8370 -11.3433 2.6944 -4.6294 35.0666 0.7660 -1.9392 13.9318 0.0000 0.0000 0.0000 -61.7088 -35.3654 66.2695 72.9642 -58.8745 -45.3023 -0.0000 -0.0000 6.2308 -22.7555 -22.6253 9.1664 -7.1250 0.0000 -0.0000 -30.5300 7.7200 31.1026 0.0000 0.0000 0.0000 80.7832 -0.9461 58.9437 -93.8977 59.9425 -63.3748 0.0000 0.0000 33.6040 -24.6811 -54.9223 20.6104 7.1250 -0.0000 -0.0000 75.4182 -81.0888 -66.5265
